<?xml version="1.0" encoding="UTF-8"?>
<svg width="1080px" height="1080px" viewBox="0 0 1080 1080" xmlns="http://www.w3.org/2000/svg" xmlns:xlink="http://www.w3.org/1999/xlink" version="1.1">
 <!-- Generated by Pixelmator Pro 2.0.3 -->
 <g id="5fd9eedfd3365a22c65c5c78_Group-61-copy">
  <path id="Path" d="M906.647 540.028 C906.647 771.147 719.289 958.505 488.17 958.505 257.052 958.505 69.693 771.147 69.693 540.028 69.693 308.91 257.052 121.551 488.17 121.551 719.289 121.551 906.647 308.91 906.647 540.028 Z" fill="#2eb6ea" fill-opacity="1" stroke="none"/>
  <path id="Path-1" d="M485.906 958.503 C69.702 958.503 -94.561 410.964 273.071 180.214 229.351 637.846 461.925 647.969 677.746 637.846 1039.388 620.885 1039.63 958.503 1039.63 958.503 Z" fill="#1542cd" fill-opacity="1" stroke="none"/>
  <path id="Path-2" d="M883.749 676.926 C820.784 838.298 665.948 953.689 483.528 958.815 487.824 958.935 492.148 958.995 496.498 958.995 L1046.744 958.995 C1046.744 958.995 1046.604 761.109 883.749 676.926 Z" fill="#745ddf" fill-opacity="1" stroke="none"/>
 </g>
</svg>
